<?xml version="1.0" standalone="no"?>
<!DOCTYPE svg PUBLIC "-//W3C//DTD SVG 20010904//EN"
 "http://www.w3.org/TR/2001/REC-SVG-20010904/DTD/svg10.dtd">
<svg version="1.0" xmlns="http://www.w3.org/2000/svg"
 width="300.000000pt" height="300.000000pt" viewBox="0 0 300.000000 300.000000"
 preserveAspectRatio="xMidYMid meet">
<metadata>
Created by potrace 1.10, written by Peter Selinger 2001-2011
</metadata>
<g transform="translate(0.000000,300.000000) scale(0.100000,-0.100000)"
fill="#000000" stroke="none">
<path d="M1095 2390 c-220 -88 -406 -159 -413 -159 -11 -1 -13 -55 -10 -285 2
-156 0 -282 -4 -279 -5 2 -8 13 -8 23 0 51 -27 16 -35 -45 0 -5 -6 -20 -13
-32 -9 -16 -9 -22 0 -25 8 -3 7 -11 -3 -28 -7 -14 -13 -31 -14 -38 0 -8 -11
-20 -25 -27 l-25 -14 25 -1 25 -1 -24 -19 -23 -20 23 0 c23 -1 23 -2 -9 -30
-27 -25 -30 -31 -16 -37 51 -19 107 0 222 76 l82 55 0 68 c0 38 -6 78 -13 89
-8 15 -9 23 -1 26 7 2 2 30 -15 81 l-25 77 -9 -35 c-5 -19 -11 -47 -14 -63 -3
-15 -9 -30 -14 -33 -6 -3 -8 90 -7 227 l3 232 379 148 378 149 117 -46 c327
-130 622 -244 629 -244 5 0 12 -99 15 -220 l6 -221 30 -29 c16 -17 32 -27 34
-23 2 5 5 127 6 273 l2 265 -418 163 c-230 89 -422 162 -428 161 -5 0 -190
-72 -410 -159z m-365 -704 c0 -32 25 -53 45 -36 19 16 35 4 35 -26 0 -14 4
-22 10 -19 14 9 12 -17 -3 -54 -14 -32 -125 -121 -151 -121 -8 0 -18 -5 -21
-10 -4 -6 -13 -4 -23 6 -15 15 -14 21 6 78 12 33 22 71 22 83 0 12 11 34 25
49 14 15 28 38 31 51 8 30 24 30 24 -1z"/>
<path d="M1458 2366 c-31 -12 -59 -24 -63 -27 -3 -4 0 -39 6 -79 l12 -72 45 6
c25 3 69 6 98 6 60 0 62 3 67 93 l2 48 -55 23 -56 23 -56 -21z m100 -26 c39
-19 42 -24 42 -60 0 -53 -20 -70 -86 -71 -30 -1 -59 -2 -66 -3 -11 -1 -14 7
-25 76 -5 37 -4 38 38 58 54 24 47 24 97 0z"/>
<path d="M1093 2222 l-112 -45 18 -26 c11 -14 36 -45 57 -69 l39 -44 82 47 82
46 -26 67 c-13 37 -25 67 -26 68 -1 0 -52 -19 -114 -44z m116 -28 c22 -49 14
-68 -39 -97 -27 -15 -56 -27 -62 -27 -16 0 -70 67 -72 88 -1 17 129 73 150 65
6 -2 16 -15 23 -29z"/>
<path d="M1806 2245 c-3 -13 -9 -30 -12 -39 -5 -13 1 -16 27 -15 19 1 26 3 17
6 -22 6 -23 22 -3 29 18 7 68 -23 60 -36 -4 -6 4 -10 17 -10 13 0 42 -9 65
-19 36 -17 43 -18 54 -5 15 19 7 26 -61 51 -30 12 -78 30 -107 41 l-51 21 -6
-24z"/>
<path d="M1311 2139 c-36 -20 -149 -83 -250 -140 l-184 -105 -5 -187 c-4 -161
-2 -187 11 -187 11 0 13 -9 10 -43 -4 -34 -2 -45 11 -50 12 -5 16 0 16 23 0
46 27 70 77 70 l42 0 -10 -32 c-6 -18 -13 -39 -15 -47 -3 -11 -7 -11 -19 -1
-12 10 -15 9 -15 -8 0 -27 15 -35 30 -17 16 19 27 19 27 0 0 -8 -6 -15 -13
-15 -6 0 -15 -7 -18 -16 -3 -9 -11 -12 -18 -8 -8 5 -9 2 -4 -12 4 -10 4 -15
-1 -11 -4 5 -9 29 -10 53 -3 40 -20 74 -37 74 -11 0 -6 -56 6 -68 6 -6 8 -15
3 -19 -4 -5 -9 -3 -11 2 -6 14 -155 1 -222 -20 -62 -19 -66 -28 -7 -15 22 5
69 9 105 9 64 -1 64 -1 35 -15 -28 -13 -25 -14 44 -8 54 5 72 4 67 -5 -4 -6
-22 -11 -39 -11 -18 0 -39 -5 -47 -11 -11 -8 -7 -9 18 -5 42 7 227 -10 253
-24 11 -6 17 -15 15 -19 -3 -5 16 -11 42 -15 37 -5 50 -3 59 9 9 13 18 14 50
7 21 -6 59 -13 86 -17 26 -3 47 -8 47 -11 0 -2 -9 -13 -20 -24 -20 -20 -20
-20 -20 0 0 18 -7 20 -65 20 -62 0 -65 -1 -65 -25 l0 -24 -24 24 c-45 44 -170
46 -203 1 l-17 -22 -22 25 c-20 24 -29 26 -97 26 -66 0 -79 -3 -101 -24 -25
-24 -26 -29 -26 -138 l0 -113 -27 0 -28 0 0 137 0 137 -65 0 -65 0 -3 -197 -2
-197 105 0 c88 0 105 2 105 16 0 14 2 14 22 0 13 -10 43 -16 73 -16 51 0 52 0
146 -92 103 -101 232 -192 376 -266 l92 -47 88 43 c137 68 279 167 384 269 69
67 103 93 121 93 31 0 78 35 78 58 0 12 4 9 13 -8 19 -38 54 -51 125 -47 81 4
103 24 110 101 5 64 -2 98 -24 120 -14 15 -14 16 0 16 13 0 16 12 16 55 0 60
-22 95 -59 95 -27 0 -37 20 -14 26 33 9 58 71 57 138 -1 78 -19 133 -55 172
l-29 30 49 42 c27 23 57 42 65 42 11 0 16 9 16 30 0 29 -2 30 -46 30 -44 0
-45 -1 -42 -29 1 -18 -5 -37 -16 -50 -12 -13 -14 -21 -7 -21 7 0 9 -4 6 -10
-10 -17 -21 -11 -22 13 -1 12 -16 34 -33 49 -16 15 -30 36 -30 45 0 15 -2 16
-10 3 -7 -11 -10 1 -10 41 0 30 -6 61 -12 68 -11 10 -10 11 4 6 12 -5 18 -21
21 -53 l3 -47 2 51 c2 44 -1 52 -17 57 -28 7 -31 1 -31 -62 0 -54 0 -55 -19
-36 -19 21 -55 151 -45 166 10 17 -7 49 -27 49 -10 0 -19 4 -19 9 0 5 -9 12
-19 16 -11 3 -22 18 -26 33 -7 36 -49 81 -90 98 -47 19 -275 36 -444 32 l-144
-3 -66 -36z m197 24 c-14 -3 -18 -16 -20 -54 -1 -27 -3 -61 -5 -76 -3 -16 -7
-131 -10 -258 -2 -126 -7 -232 -9 -234 -2 -2 -6 -2 -9 1 -7 7 13 572 21 604 4
17 13 24 28 23 16 -1 17 -2 4 -6z m154 -20 c48 -15 108 -70 108 -98 0 -21
-101 -20 -142 1 -21 11 -43 14 -70 10 -37 -6 -38 -5 -38 23 0 16 3 43 6 60 6
30 8 31 48 25 22 -3 62 -12 88 -21z m-192 7 c0 -5 -22 -10 -50 -10 -27 0 -50
5 -50 10 0 6 23 10 50 10 28 0 50 -4 50 -10z m335 -9 c43 -19 95 -73 95 -97 0
-9 -10 -14 -27 -13 -16 0 -22 3 -15 6 37 15 -10 73 -88 106 -19 9 -28 16 -20
16 8 0 33 -8 55 -18z m-445 2 c0 -9 -470 -266 -476 -260 -4 4 456 265 469 266
4 1 7 -2 7 -6z m627 -19 c25 -16 48 -48 58 -81 5 -19 3 -23 -16 -23 -17 0 -20
3 -12 11 23 23 -12 72 -72 101 -34 17 -36 18 -10 13 17 -3 40 -13 52 -21z
m-587 -272 l0 -278 -227 -12 c-270 -15 -300 -15 -287 -3 5 4 112 17 237 29
126 11 230 22 232 23 2 2 6 120 10 262 6 206 10 257 21 257 12 0 14 -50 14
-278z m553 244 c19 -15 22 -32 7 -41 -10 -6 -50 29 -50 45 0 14 22 12 43 -4z
m-623 -231 c0 -125 -4 -206 -10 -210 -7 -4 -10 68 -10 210 0 142 3 214 10 210
6 -4 10 -85 10 -210z m-55 -15 c0 -110 -3 -200 -7 -200 -5 0 -8 90 -8 200 0
110 3 200 8 200 4 0 7 -90 7 -200z m303 123 l3 -62 -38 -10 c-54 -15 -53 -16
-53 37 0 84 12 103 65 99 17 -2 20 -10 23 -64z m-361 -240 c-1 -54 -3 -10 -3
97 0 107 2 151 3 98 2 -54 2 -142 0 -195z m809 280 c36 -6 1 -9 -130 -13 -184
-5 -204 -10 -171 -44 17 -17 13 -20 -20 -16 -28 3 -14 -9 15 -13 19 -3 26 -12
33 -43 4 -21 6 -49 4 -61 -2 -12 0 -24 6 -26 12 -4 9 -179 -4 -191 -5 -6 -9
20 -9 72 0 48 -4 82 -10 82 -5 0 -10 24 -10 54 0 30 -4 66 -10 80 -8 22 -12
24 -40 16 l-30 -9 0 44 c0 71 9 75 179 75 82 0 170 -3 197 -7z m-861 -371
c-10 -10 -10 4 -5 183 l5 180 3 -179 c1 -98 0 -181 -3 -184z m967 330 c6 -6
10 -13 7 -16 -2 -2 -95 -1 -206 2 -170 4 -203 7 -203 20 0 12 28 14 195 10
133 -2 198 -7 207 -16z m-1012 -172 c0 -120 -3 -170 -11 -170 -9 0 -10 44 -6
163 4 89 7 165 7 170 0 4 2 7 5 7 3 0 5 -76 5 -170z m859 113 c17 -69 24 -126
13 -119 -5 3 -12 25 -16 48 -4 24 -9 58 -12 76 -8 44 3 41 15 -5z m-909 -133
c0 -100 -4 -160 -10 -160 -6 0 -10 60 -10 160 0 100 4 160 10 160 6 0 10 -60
10 -160z m-50 -10 c0 -93 -4 -150 -10 -150 -6 0 -10 54 -10 143 0 126 3 157
17 157 2 0 3 -67 3 -150z m920 124 c6 -14 10 -36 10 -50 0 -19 -5 -24 -27 -25
-16 -1 -52 -3 -81 -4 -29 -2 -50 0 -47 5 3 4 0 22 -6 39 -18 52 -8 61 71 61
66 0 71 -1 80 -26z m164 10 c9 -8 16 -21 16 -27 0 -7 3 -22 6 -34 6 -21 3 -23
-37 -23 -24 0 -49 4 -56 8 -15 9 -27 57 -19 77 7 20 70 20 90 -1z m-524 -184
l0 -180 -45 0 c-46 0 -61 14 -25 23 19 5 20 14 20 157 0 147 -1 151 -20 145
-11 -3 -20 -2 -20 3 0 8 49 26 83 31 4 1 7 -80 7 -179z m-610 30 c0 -87 -4
-140 -10 -140 -6 0 -10 53 -10 140 0 87 4 140 10 140 6 0 10 -53 10 -140z
m696 125 c4 -9 3 -40 -1 -70 -6 -52 -8 -55 -33 -54 -24 2 -24 2 -4 6 20 4 22
10 22 65 0 49 -3 59 -15 55 -8 -4 -17 -2 -20 3 -4 6 5 10 20 10 14 0 28 -7 31
-15z m-746 -139 c0 -73 -4 -127 -10 -131 -6 -4 -10 40 -10 124 0 81 4 131 10
131 6 0 10 -48 10 -124z m586 6 c-11 -10 -13 3 -7 48 l6 45 3 -44 c2 -23 1
-46 -2 -49z m680 16 c23 -13 53 -32 68 -43 l26 -20 -149 0 c-82 0 -147 3 -144
8 2 4 -8 12 -24 18 -15 6 -36 17 -45 26 -9 8 -25 13 -35 10 -14 -4 -14 -5 5
-6 14 -1 22 -7 21 -18 0 -11 -3 -13 -6 -5 -2 6 -13 12 -23 12 -28 0 -51 11
-44 21 3 5 -1 9 -9 9 -9 0 -12 -9 -9 -28 3 -21 13 -33 37 -44 24 -11 32 -11
28 -2 -5 15 6 13 74 -10 58 -19 85 -42 60 -52 -8 -3 -31 2 -52 10 -33 14 -36
14 -31 0 4 -10 2 -13 -6 -7 -7 4 -19 8 -28 8 -8 1 -32 7 -53 14 -21 7 -40 11
-42 9 -5 -5 195 -78 210 -77 6 0 -8 9 -30 20 -34 16 -36 18 -10 13 17 -4 40
-6 51 -6 25 2 34 -21 34 -85 0 -51 -18 -67 -26 -23 -5 23 -16 35 -48 50 -35
17 -23 18 24 2 11 -3 12 -2 5 6 -17 18 -199 74 -203 62 -2 -5 -10 -10 -18 -10
-11 0 -14 17 -14 74 0 63 3 75 18 79 9 3 91 5 182 6 154 1 168 -1 206 -21z
m-471 -9 c17 -1 17 -2 2 -6 -9 -2 -14 -9 -11 -15 4 -6 3 -8 -2 -5 -6 3 -16 2
-24 -4 -12 -7 -11 -9 5 -10 20 0 20 0 0 -9 -17 -7 -16 -9 10 -10 l30 -2 -30
-8 -30 -8 35 -2 35 -3 -35 -7 -35 -7 35 -3 35 -3 -35 -7 -35 -7 35 -3 35 -3
-35 -7 -35 -7 35 -3 35 -3 -35 -7 -35 -7 35 -3 35 -3 -35 -7 -35 -7 30 -3 c28
-3 29 -3 5 -8 -22 -4 -23 -5 -6 -11 14 -6 27 0 45 21 66 73 199 39 251 -63 35
-67 32 -69 -77 -69 l-98 0 -15 47 c-27 85 -75 81 -88 -8 -6 -42 -6 -43 -13
-14 -3 17 -5 -8 -3 -55 2 -65 1 -75 -5 -40 -6 32 -8 37 -9 18 -3 -47 -22 -31
-22 18 l0 45 -42 -3 c-43 -3 -43 -3 -41 -40 l2 -36 -62 4 c-59 3 -60 3 -17 -6
75 -14 120 -12 114 5 -4 8 -2 15 4 15 5 0 12 -9 15 -20 3 -12 14 -20 26 -20
12 0 21 -4 21 -10 0 -12 8 -12 -87 0 -155 20 -143 14 -143 70 l0 50 101 0
c100 0 101 0 130 31 36 39 36 49 0 49 -35 0 -41 16 -41 118 0 55 4 76 18 91
10 10 21 14 27 10 5 -5 18 -10 30 -10z m380 -91 c7 -25 12 -208 5 -208 -4 0
-11 45 -15 100 -6 89 -9 100 -26 100 -10 0 -19 5 -19 10 0 15 50 12 55 -2z
m203 -95 l-2 -108 -3 98 c-3 89 -5 97 -23 97 -19 0 -20 -7 -20 -100 0 -60 -4
-100 -10 -100 -6 0 -10 40 -10 99 l0 100 -27 4 c-20 4 -17 5 9 4 20 -1 40 2
44 6 4 4 16 7 26 7 16 0 18 -9 16 -107z m-124 45 c9 -80 7 -168 -4 -168 -6 0
-10 41 -10 104 l0 105 -27 4 c-27 4 -27 4 3 6 30 1 31 0 38 -51z m178 -52 c14
-20 15 -26 4 -35 -7 -6 -12 -23 -9 -39 3 -23 2 -24 -6 -7 -9 19 -10 19 -10 -4
-1 -21 2 -23 29 -17 19 3 29 2 25 -4 -3 -6 -16 -10 -28 -10 -12 0 -56 -7 -97
-16 -64 -13 -88 -13 -157 -3 -46 7 -83 16 -83 21 0 5 10 6 23 3 68 -15 144
-21 185 -14 98 18 92 12 92 84 0 36 3 65 8 65 4 0 15 -11 24 -24z m-918 -11
c3 -8 -1 -30 -9 -49 -8 -20 -15 -55 -15 -78 0 -28 -3 -38 -9 -29 -5 7 -6 21
-4 31 3 10 0 20 -5 24 -14 9 -24 -39 -16 -80 5 -28 10 -35 25 -31 12 3 16 0
12 -9 -3 -8 -13 -14 -24 -14 -21 0 -34 49 -27 106 l4 37 -18 -23 -18 -22 -6
32 c-5 22 -9 28 -15 18 -14 -22 -10 -95 6 -112 11 -10 12 -17 4 -22 -26 -15
-48 73 -31 120 13 33 1 59 -24 49 -9 -3 -14 -20 -14 -49 0 -41 -2 -44 -27 -44
-62 0 -73 9 -73 56 l0 44 55 0 c39 0 56 4 63 16 5 10 28 17 63 21 30 3 61 9
69 14 21 12 27 11 34 -6z m234 -47 c-6 -16 -218 -25 -218 -9 0 12 22 15 134
19 70 3 87 1 84 -10z m-578 -43 c0 -33 -4 -45 -15 -45 -11 0 -15 12 -15 45 0
33 4 45 15 45 11 0 15 -12 15 -45z m32 0 c-2 -25 -8 -45 -13 -45 -5 0 -9 20
-9 45 0 29 4 45 13 45 8 0 11 -14 9 -45z m663 -52 c7 -46 1 -52 -31 -28 -18
14 -18 15 0 9 16 -6 17 -4 7 14 -6 11 -11 38 -11 59 1 38 1 38 14 13 8 -14 17
-44 21 -67z m-51 10 c-6 -56 7 -108 26 -108 8 0 17 11 21 25 7 25 7 25 8 2 2
-56 -41 -83 -59 -36 -16 41 -11 164 6 164 2 0 1 -21 -2 -47z m311 -1 c75 -9
200 -8 241 0 31 7 32 6 37 -30 2 -20 1 -44 -4 -52 -7 -12 -8 -12 -9 4 0 10 -8
25 -17 32 -17 13 -17 13 0 14 9 0 17 4 17 9 0 6 -16 7 -37 3 -51 -9 -147 -9
-205 1 l-47 8 -3 -33 c-3 -31 -5 -33 -46 -36 -47 -4 -72 10 -72 39 0 31 57 26
72 -6 15 -33 38 -32 38 0 0 32 -31 45 -111 45 l-59 0 0 -32 c0 -18 -5 -40 -10
-48 -7 -11 -10 -4 -10 27 0 23 -3 49 -7 58 -6 16 1 17 83 11 49 -4 116 -10
149 -14z m353 -5 c4 -20 -24 -57 -43 -57 -8 0 -10 10 -7 25 5 26 27 34 35 13
3 -8 6 -5 6 6 1 15 -5 17 -29 14 -32 -5 -42 7 -12 15 29 8 47 3 50 -16z
m-1126 -40 c8 -13 11 -37 4 -37 -2 0 -30 14 -62 31 l-59 31 55 -6 c30 -4 58
-13 62 -19z m-90 -22 c26 -17 48 -36 48 -42 0 -15 -46 -17 -55 -3 -4 6 -25 20
-48 31 -39 20 -40 22 -22 35 11 8 22 13 25 12 3 -2 26 -17 52 -33z m1061 -16
c-14 -14 -135 -7 -140 8 -3 8 16 13 64 15 71 3 95 -4 76 -23z m-692 -10 c119
-17 98 -26 -30 -13 -53 6 -61 9 -61 28 0 15 3 17 9 8 4 -7 41 -18 82 -23z
m114 -18 c-3 -5 2 -16 10 -24 22 -22 19 -30 -10 -25 -14 3 -25 2 -25 -3 0 -15
-39 -20 -62 -8 -13 7 -41 14 -63 14 -53 2 -82 12 -89 32 -5 12 -2 14 16 8 13
-5 58 -10 100 -12 59 -4 83 -1 100 11 26 18 32 20 23 7z m698 -12 c-5 -5 -46
-14 -90 -18 -44 -5 -86 -12 -93 -16 -18 -11 -288 -17 -303 -8 -7 5 58 10 143
13 l155 6 -182 2 c-157 2 -182 4 -177 17 4 8 10 15 16 15 5 0 6 -5 3 -11 -8
-12 505 -1 519 12 13 12 22 1 9 -12z m-1663 -209 l0 -140 35 0 c32 0 35 -2 35
-30 l0 -30 -75 0 -75 0 0 170 0 170 40 0 40 0 0 -140z m281 121 c23 -19 24
-24 24 -156 0 -162 -2 -165 -100 -165 -94 0 -99 7 -103 137 -5 182 5 203 98
203 42 0 64 -5 81 -19z m248 -7 c12 -15 21 -40 21 -55 0 -27 -3 -29 -40 -29
-36 0 -40 2 -40 26 0 21 -4 25 -22 22 -22 -3 -23 -7 -23 -108 0 -101 1 -105
23 -108 19 -3 22 1 22 27 0 17 -4 31 -10 31 -5 0 -10 15 -10 33 0 32 0 32 51
32 l51 0 -4 -76 c-4 -100 -12 -109 -99 -109 -98 0 -99 2 -99 170 0 164 4 170
101 170 50 0 60 -3 78 -26z m141 -144 l0 -170 -40 0 -40 0 0 170 0 170 40 0
40 0 0 -170z m214 157 c9 -7 20 -32 23 -54 l6 -42 -39 3 c-30 3 -39 8 -39 22
0 12 -8 20 -22 22 -19 3 -23 -1 -23 -22 0 -27 32 -56 62 -56 38 0 58 -36 58
-102 0 -84 -14 -98 -96 -98 -76 0 -94 14 -94 73 0 41 1 42 35 42 32 0 35 -3
35 -27 0 -21 5 -28 20 -28 24 0 34 21 26 54 -4 17 -15 26 -38 31 -66 14 -78
29 -78 97 0 82 15 98 90 98 31 0 64 -6 74 -13z m234 -19 c-3 -30 -6 -33 -31
-30 l-29 4 4 -141 3 -141 -42 0 -41 0 1 138 2 137 -25 0 c-21 0 -26 6 -28 33
l-3 32 96 0 96 0 -3 -32z m106 -140 l1 -168 -41 0 -40 0 0 170 1 171 39 -3 39
-3 1 -167z m218 155 c12 -11 18 -30 18 -60 0 -43 0 -43 -35 -43 -32 0 -35 2
-35 30 0 23 -4 30 -20 30 -19 0 -20 -7 -20 -110 0 -103 1 -110 20 -110 16 0
20 7 20 35 0 33 2 35 35 35 l35 0 0 -47 c0 -67 -18 -83 -96 -83 -89 0 -94 9
-94 172 0 115 2 130 20 148 26 26 124 28 152 3z m231 4 c10 -6 20 -28 23 -48
6 -36 5 -37 -30 -41 -32 -3 -36 -1 -36 18 0 25 -22 38 -39 21 -27 -27 6 -77
51 -77 37 0 58 -36 58 -100 0 -81 -19 -100 -97 -100 -71 0 -93 17 -93 74 0 40
1 41 35 41 32 0 35 -3 35 -27 0 -23 4 -28 26 -28 23 0 25 3 22 37 -3 35 -6 38
-48 50 -58 17 -70 34 -70 102 0 74 16 91 90 91 31 0 64 -6 73 -13z m-723 -127
c0 -47 -4 -49 -26 -15 -13 20 -14 28 -4 40 21 25 30 17 30 -25z m530 -9 c0
-28 -12 -36 -50 -33 -49 5 -54 29 -7 35 17 2 38 5 45 5 6 1 12 -2 12 -7z
m-348 -198 c12 -13 27 -23 34 -23 7 0 16 -5 20 -12 4 -7 3 -8 -4 -4 -7 4 -12
3 -12 -1 0 -9 -120 -77 -125 -71 -8 10 -12 88 -4 88 6 0 21 11 34 25 22 21 25
34 27 97 l2 73 3 -75 c3 -59 8 -79 25 -97z m-162 41 c0 -3 -14 -19 -31 -36
-24 -25 -33 -28 -42 -18 -10 10 -8 12 6 7 11 -4 16 -3 12 4 -8 12 23 49 42 49
7 0 13 -3 13 -6z m-606 -57 c33 -43 162 -119 316 -186 l125 -54 50 18 c156 54
400 191 389 219 -9 23 14 28 41 10 23 -15 24 -19 12 -37 -17 -26 -39 -35 -31
-13 10 27 -5 19 -74 -41 -81 -69 -223 -163 -315 -210 l-68 -34 -77 42 c-107
57 -225 137 -302 203 -44 38 -66 51 -68 41 -3 -13 -7 -12 -27 1 -27 18 -37 38
-29 59 10 24 31 17 58 -18z m218 -32 c-2 -28 -5 -52 -8 -54 -2 -2 -23 4 -46
15 -23 10 -46 19 -50 19 -9 0 -12 11 -6 23 6 13 83 51 98 49 12 -2 14 -14 12
-52z m178 4 c0 -5 -4 -9 -10 -9 -5 0 -10 -18 -10 -40 0 -22 -3 -40 -8 -40 -4
0 -6 18 -4 39 4 37 2 39 -22 38 -30 -2 -31 -5 -10 -28 26 -29 11 -46 -40 -47
l-46 -1 0 48 0 49 75 0 c41 0 75 -4 75 -9z m78 -1 c8 -8 15 -8 26 1 23 20 36
4 36 -44 l0 -43 -50 0 c-52 -1 -65 13 -35 38 8 7 15 20 15 29 0 14 -2 14 -10
1 -11 -18 -25 -7 -17 15 8 18 19 19 35 3z m110 -17 c2 -12 -2 -29 -9 -37 -10
-13 -10 -17 2 -25 11 -7 9 -9 -8 -9 -26 0 -29 16 -8 44 19 26 19 42 0 26 -12
-10 -15 -10 -15 2 0 35 33 35 38 -1z m60 3 c2 -11 -4 -27 -13 -34 -20 -16 -19
-27 3 -33 10 -3 6 -5 -10 -6 -31 -1 -37 19 -13 39 8 7 15 20 15 29 0 14 -2 14
-10 1 -11 -18 -25 -6 -16 15 8 23 40 14 44 -11z m-119 -110 c9 -8 -14 -25 -48
-35 -34 -10 -44 -9 -86 12 -44 22 -46 24 -24 30 22 6 149 1 158 -7z"/>
<path d="M1896 1685 c-4 -11 -12 -14 -26 -10 -33 10 -23 -2 11 -14 26 -9 30
-8 25 5 -4 10 -2 13 7 7 13 -8 15 -9 67 -17 l35 -6 -30 14 c-16 9 -37 15 -45
16 -9 0 -21 5 -27 11 -7 7 -12 6 -17 -6z"/>
<path d="M1850 1512 c0 -37 24 -53 88 -59 39 -4 62 -2 62 5 0 22 -37 54 -75
62 -59 14 -75 12 -75 -8z m113 -14 c29 -15 19 -16 -35 -1 -72 18 -82 24 -28
17 25 -4 53 -10 63 -16z"/>
<path d="M887 1154 c-4 -4 -7 -54 -7 -111 0 -103 0 -104 23 -101 21 3 22 7 22
108 0 87 -3 105 -15 108 -9 1 -19 0 -23 -4z"/>
<path d="M1330 811 c0 -5 6 -12 13 -15 10 -5 10 -7 0 -12 -7 -3 -13 -12 -13
-20 0 -17 26 -19 33 -1 4 9 8 8 17 -3 13 -17 10 -7 -9 33 -13 25 -41 38 -41
18z"/>
<path d="M830 1912 c0 -77 4 -133 10 -137 6 -4 10 12 10 42 0 72 8 88 51 113
22 12 39 23 37 24 -2 1 -27 21 -55 45 l-53 43 0 -130z m60 37 c0 -10 -6 -19
-14 -19 -19 0 -28 14 -20 33 8 21 34 10 34 -14z"/>
<path d="M2165 2020 c-13 -15 -15 -23 -7 -33 7 -7 11 -29 11 -48 0 -19 4 -50
10 -69 8 -31 9 -27 10 36 1 39 4 86 7 103 7 36 -5 40 -31 11z"/>
</g>
</svg>
