 <svg  version="1.0" xmlns="http://www.w3.org/2000/svg"  width="900.000000pt" height="900.000000pt" viewBox="0 0 900.000000 900.000000"  preserveAspectRatio="xMidYMid meet">  <g transform="translate(0.000000,900.000000) scale(0.100000,-0.100000)" fill="#ff0000" stroke="none"> <path d="M4460 7623 c-57 -25 -92 -39 -140 -58 -25 -9 -58 -23 -73 -31 -16 -8 -33 -14 -39 -14 -5 0 -24 -6 -41 -14 -18 -7 -52 -21 -77 -31 -25 -9 -58 -23 -75 -30 -16 -7 -48 -19 -70 -28 -22 -8 -60 -22 -85 -32 -25 -9 -58 -23 -75 -30 -30 -12 -77 -31 -157 -61 -24 -9 -56 -22 -73 -29 -16 -7 -50 -20 -75 -30 -25 -9 -58 -23 -73 -31 -16 -8 -33 -14 -39 -14 -5 0 -24 -6 -41 -14 -18 -7 -52 -21 -77 -31 -25 -9 -58 -23 -75 -30 -30 -12 -77 -31 -157 -61 -24 -9 -56 -22 -73 -29 -30 -12 -77 -31 -157 -61 -24 -9 -56 -22 -73 -29 -16 -7 -50 -20 -75 -30 -25 -9 -58 -23 -73 -31 -16 -8 -33 -14 -39 -14 -5 0 -24 -6 -41 -14 -18 -7 -52 -21 -77 -31 -25 -9 -58 -23 -75 -30 -16 -7 -55 -23 -85 -34 -30 -12 -64 -26 -75 -30 -11 -5 -40 -16 -65 -26 -25 -9 -56 -22 -70 -29 l-25 -12 -3 -823 c-2 -769 -3 -822 -19 -819 -10 2 -20 16 -24 34 -12 61 -43 75 -54 24 -4 -17 -20 -56 -37 -87 -23 -44 -28 -61 -20 -74 8 -13 3 -29 -24 -73 -19 -31 -34 -61 -34 -65 0 -5 11 -12 25 -15 29 -7 35 -46 10 -66 -8 -7 -15 -18 -15 -24 0 -7 -14 -25 -30 -41 l-31 -29 22 -16 21 -16 -26 -30 c-13 -17 -43 -43 -65 -58 -48 -33 -45 -46 10 -46 21 0 39 -5 39 -11 0 -15 -60 -69 -90 -81 -24 -9 -24 -10 -6 -24 11 -8 30 -14 43 -14 40 0 26 -31 -42 -95 -82 -78 -77 -91 39 -108 69 -10 83 -9 124 7 26 10 83 27 127 38 44 11 87 24 95 29 8 5 22 12 30 16 8 4 58 38 110 77 134 100 245 176 285 195 11 6 31 19 44 29 23 18 23 22 26 218 l3 199 -35 53 c-38 58 -40 85 -5 90 30 5 39 28 18 51 -9 10 -16 21 -16 26 0 5 -8 17 -17 27 -12 14 -17 34 -15 68 1 27 -2 51 -7 54 -11 7 -41 71 -65 139 -10 26 -21 47 -26 47 -9 0 -20 -25 -20 -48 0 -9 -16 -49 -36 -90 -28 -58 -35 -81 -30 -107 4 -20 2 -36 -4 -40 -6 -4 -16 -18 -21 -33 -6 -16 -13 -22 -19 -16 -7 7 -9 262 -8 693 l3 682 25 14 c23 12 41 19 153 61 23 9 56 22 72 29 30 12 77 31 158 61 23 9 56 22 72 29 17 7 50 20 75 30 25 9 58 23 73 31 16 8 33 14 39 14 5 0 24 6 41 14 18 7 52 21 77 31 25 9 59 23 75 30 17 7 48 19 70 28 22 8 60 22 85 32 25 9 59 23 75 30 17 7 50 20 75 30 25 9 59 23 75 30 17 7 50 20 75 30 25 9 58 23 73 31 16 8 36 14 46 14 9 0 26 7 37 15 10 8 25 15 32 15 8 0 28 6 45 14 18 7 52 21 77 31 25 9 59 23 75 30 17 7 48 19 70 28 22 8 60 22 85 32 25 9 59 23 75 30 30 12 77 31 158 61 43 16 74 29 140 58 21 9 44 16 52 16 8 0 31 -7 52 -16 63 -28 96 -41 143 -59 25 -10 59 -24 77 -31 17 -8 37 -14 45 -14 7 0 22 -7 32 -15 11 -8 28 -15 37 -15 10 0 32 -8 51 -17 18 -9 45 -22 60 -30 14 -7 33 -13 41 -13 9 0 28 -6 44 -14 15 -8 48 -22 73 -31 25 -10 59 -23 75 -30 17 -7 49 -20 73 -29 80 -30 127 -49 157 -61 17 -7 49 -20 73 -29 80 -30 127 -49 157 -61 17 -7 50 -21 75 -30 25 -10 54 -21 65 -26 24 -10 114 -45 170 -66 22 -9 54 -21 70 -28 17 -7 48 -20 70 -28 62 -23 127 -48 160 -62 17 -7 50 -21 75 -30 25 -10 59 -24 77 -31 17 -8 36 -14 41 -14 6 0 23 -6 39 -14 15 -8 48 -22 73 -32 25 -9 59 -22 75 -29 17 -7 45 -18 63 -25 17 -7 33 -13 34 -14 1 0 6 -206 10 -456 4 -250 11 -546 15 -656 l8 -202 55 -45 c30 -25 65 -59 78 -77 37 -49 49 -28 44 73 -3 66 -1 89 12 109 15 22 16 92 14 713 l-3 689 -25 12 c-14 7 -45 20 -70 29 -25 10 -58 23 -75 30 -16 7 -48 20 -70 28 -22 8 -76 29 -120 47 -44 18 -98 39 -120 47 -22 9 -53 21 -70 28 -16 7 -50 21 -75 30 -25 10 -63 24 -85 32 -22 9 -53 21 -70 28 -16 7 -50 21 -75 30 -25 10 -59 24 -77 31 -17 8 -36 14 -41 14 -6 0 -23 6 -39 14 -15 8 -48 22 -73 31 -25 10 -58 23 -75 30 -16 7 -48 20 -70 28 -62 23 -127 48 -160 62 -16 7 -50 21 -75 30 -25 10 -63 24 -85 32 -22 9 -53 21 -70 28 -16 7 -50 21 -75 30 -53 20 -68 27 -134 54 -27 12 -54 21 -61 21 -8 0 -26 6 -42 14 -36 18 -87 40 -143 61 -25 10 -63 24 -85 32 -22 9 -53 21 -70 28 -16 7 -48 20 -70 28 -91 34 -131 50 -157 63 -33 18 -74 17 -118 -3z m-2170 -2588 c0 -25 -23 -65 -37 -65 -14 0 -19 61 -6 73 12 13 43 7 43 -8z"/> <path d="M4430 6513 c-14 -10 -53 -18 -99 -22 l-76 -5 68 -7 c66 -5 86 -16 87 -46 0 -18 -45 -23 -183 -21 -116 3 -128 5 -133 22 -5 13 1 26 16 38 l22 18 -31 0 c-17 0 -31 -4 -31 -9 0 -5 -11 -12 -25 -15 -14 -4 -25 -11 -25 -17 0 -6 9 -8 20 -4 14 4 22 1 27 -11 10 -25 -6 -43 -72 -78 -33 -18 -91 -50 -130 -71 -38 -21 -95 -51 -125 -67 -30 -16 -82 -44 -115 -63 -33 -18 -82 -45 -110 -59 -27 -14 -79 -42 -114 -61 -36 -20 -96 -53 -135 -74 -39 -21 -98 -53 -131 -71 -33 -18 -85 -46 -115 -62 -30 -16 -82 -44 -115 -63 -33 -18 -82 -45 -110 -59 -27 -15 -57 -30 -65 -35 -46 -25 -62 -31 -84 -31 l-24 0 -6 -252 c-3 -139 -7 -383 -8 -543 l-3 -290 40 -5 c33 -4 40 -9 37 -25 -1 -11 -7 -51 -13 -88 -15 -97 -9 -149 17 -162 12 -6 29 -17 38 -24 9 -7 17 -12 17 -10 1 2 7 36 13 74 l12 70 9 -73 c7 -67 10 -74 37 -88 24 -12 27 -18 17 -30 -17 -21 -47 -17 -54 7 -6 19 -8 19 -24 5 -14 -13 -44 -16 -152 -16 -88 0 -155 -5 -192 -15 -32 -8 -67 -15 -79 -15 -12 0 -44 -7 -72 -15 -28 -8 -63 -17 -78 -20 -16 -3 -28 -10 -28 -15 0 -6 77 -10 204 -10 113 0 207 -4 210 -8 7 -12 -44 -59 -68 -64 -11 -1 51 -3 137 -3 110 0 160 -4 168 -12 17 -17 9 -23 -37 -29 -88 -12 -104 -15 -99 -24 7 -11 61 -16 305 -30 329 -19 480 -58 480 -125 0 -26 17 -35 63 -35 18 0 50 -7 72 -15 22 -8 63 -14 92 -15 51 0 53 1 79 45 21 37 31 45 56 45 16 0 38 -5 49 -11 31 -16 117 -36 184 -43 33 -4 94 -14 135 -22 41 -9 85 -18 98 -20 12 -3 22 -9 22 -15 0 -10 -96 -109 -106 -109 -2 0 -4 20 -4 45 0 61 -13 65 -214 65 -187 0 -190 -1 -180 -72 8 -56 -6 -67 -38 -30 -71 85 -152 112 -330 112 -123 0 -193 -12 -253 -44 -28 -14 -39 -25 -92 -94 l-19 -24 -24 38 c-62 94 -146 125 -336 125 -213 0 -299 -39 -356 -161 -20 -42 -22 -66 -26 -357 -5 -352 3 -323 -87 -323 -71 0 -67 -25 -67 414 1 376 0 397 -18 406 -25 13 -336 13 -361 0 -18 -10 -19 -27 -19 -575 0 -548 1 -565 19 -575 12 -6 128 -10 306 -10 l286 0 6 30 c6 35 14 37 50 13 57 -38 97 -45 260 -50 l161 -5 33 -46 c33 -45 268 -286 344 -352 244 -211 425 -341 685 -494 63 -37 122 -71 130 -76 8 -5 103 -53 210 -106 107 -53 207 -103 222 -110 33 -18 53 -18 86 0 15 8 106 53 202 100 567 278 967 573 1354 999 l79 87 61 1 c121 1 213 52 253 140 21 45 38 50 47 13 11 -42 86 -108 146 -129 81 -27 263 -33 349 -10 36 10 73 24 82 31 8 8 20 14 25 14 12 0 54 45 54 58 0 5 6 15 14 21 28 23 49 155 44 279 -6 133 -25 206 -69 253 -37 40 -36 49 5 49 19 0 36 6 38 13 2 6 1 77 -2 157 -5 141 -6 146 -35 189 -34 51 -76 77 -155 98 -30 7 -57 19 -61 25 -13 21 21 58 52 58 22 0 32 7 41 25 14 31 3 45 -16 20 -11 -16 -38 -19 -232 -27 -152 -7 -224 -14 -234 -23 -11 -9 -31 -10 -80 -4 -36 5 -291 8 -567 7 -315 -2 -506 1 -512 7 -14 14 2 80 19 80 8 0 17 -11 20 -25 5 -24 10 -25 80 -28 41 -2 255 2 475 8 220 6 531 14 690 16 272 5 292 7 319 26 27 19 30 20 41 4 16 -22 25 -20 25 5 0 12 15 35 34 53 36 33 39 43 52 213 5 66 3 85 -10 104 -10 15 -16 44 -16 78 0 94 -25 200 -61 261 -5 8 -13 25 -18 37 -6 11 -39 51 -75 88 -36 36 -66 71 -66 77 0 19 264 268 290 274 87 18 82 14 86 81 4 85 1 87 -143 80 -65 -3 -119 -6 -120 -6 -2 -1 -3 -29 -3 -63 0 -42 5 -67 16 -79 20 -22 13 -33 -54 -92 -62 -55 -82 -59 -82 -18 0 33 -38 78 -132 156 l-57 47 4 194 c4 167 2 195 -12 209 -16 17 -54 17 -54 0 0 -5 9 -11 21 -13 19 -3 20 -10 20 -107 0 -58 -4 -107 -10 -110 -6 -4 -10 25 -10 79 l0 86 -40 40 c-23 23 -45 38 -50 35 -6 -4 -10 -70 -10 -154 0 -81 -3 -150 -6 -153 -8 -8 -56 18 -88 47 -19 17 -26 34 -26 60 0 20 -7 67 -16 103 -39 164 -46 190 -59 233 -19 59 -19 75 0 83 21 8 19 66 -3 91 -28 33 -65 55 -92 55 -17 0 -35 11 -50 30 -14 16 -33 29 -42 30 -10 0 -18 4 -18 10 0 5 -11 12 -25 16 -17 4 -25 13 -25 28 0 11 -4 28 -10 36 -8 13 -10 13 -14 0 -3 -8 -6 -24 -8 -35 -2 -14 -12 -21 -33 -23 -45 -5 -55 -22 -13 -22 78 0 123 -12 141 -37 18 -23 18 -25 1 -38 -16 -11 -8 -14 60 -20 84 -8 112 -24 118 -67 3 -23 1 -23 -87 -23 -49 0 -166 6 -260 13 -109 9 -296 12 -524 11 -324 -3 -354 -2 -366 14 -17 23 -27 21 -23 -4 3 -22 15 -32 52 -43 17 -6 18 -8 3 -24 -14 -15 -14 -20 -3 -33 23 -24 36 -79 36 -148 1 -42 6 -73 15 -85 21 -28 20 -122 -1 -130 -20 -7 -9 -26 16 -26 10 0 27 -15 39 -35 30 -51 96 -72 127 -40 23 23 913 22 1014 -1 38 -8 74 -22 81 -30 6 -8 15 -14 20 -14 5 0 46 -26 92 -57 45 -31 97 -67 116 -80 19 -13 41 -33 49 -45 15 -21 15 -21 -44 -12 -93 14 -653 11 -692 -3 -30 -11 -37 -10 -84 19 -41 25 -54 29 -67 20 -32 -24 -45 -25 -73 -9 -17 9 -42 17 -58 17 -28 0 -58 24 -43 33 17 11 93 -5 93 -19 0 -9 12 -14 35 -14 19 0 35 4 35 9 0 10 -24 21 -47 21 -8 0 -21 7 -29 15 -9 8 -28 15 -42 15 -16 0 -32 8 -40 20 -18 30 -35 25 -30 -10 4 -29 -19 -53 -26 -27 -2 6 -7 20 -10 29 -3 10 -18 20 -33 24 -58 12 -56 19 5 22 44 2 62 7 59 15 -6 19 -65 20 -118 3 -78 -26 -144 -17 -92 13 24 13 13 22 -36 28 -40 5 -51 -3 -32 -22 6 -6 11 -41 13 -79 l3 -69 60 -22 c81 -29 115 -46 115 -58 0 -5 8 -16 18 -23 16 -13 16 -14 -5 -20 -31 -9 -29 -22 5 -30 34 -9 71 -35 72 -51 0 -16 -77 -18 -82 -3 -4 14 -57 18 -58 5 0 -5 11 -11 26 -13 15 -2 33 -10 41 -18 8 -8 21 -14 28 -14 15 0 69 -22 117 -46 14 -8 33 -14 41 -14 8 0 20 -7 27 -15 7 -8 23 -15 36 -15 12 0 26 -5 29 -10 10 -17 -26 -24 -49 -10 -11 7 -37 17 -56 21 -35 8 -110 29 -165 48 -144 47 -134 45 -165 23 -17 -13 -36 -19 -49 -15 -42 11 -128 -7 -156 -33 -14 -13 -31 -22 -36 -19 -5 4 -9 106 -9 239 0 220 -1 234 -19 247 -38 27 -56 325 -25 388 11 23 13 36 6 43 -7 7 -13 -1 -18 -27 -6 -35 -8 -37 -20 -20 -8 10 -14 26 -14 35 0 22 -39 38 -70 29 -14 -4 -41 -7 -61 -8 -20 -1 -42 -8 -49 -16 -7 -8 -16 -13 -19 -10 -4 2 -8 53 -9 112 -2 129 14 189 59 222 l31 23 494 -3 c392 -3 494 -2 494 8 0 7 4 13 8 13 5 0 16 16 25 36 17 35 17 36 -14 99 -28 58 -106 145 -129 145 -5 0 -13 6 -17 14 -4 8 -19 16 -33 18 -30 4 -30 22 0 26 37 6 15 27 -28 27 -26 0 -42 5 -42 12 0 12 -27 19 -105 26 -22 2 -83 9 -135 15 -118 14 -502 31 -841 37 -224 3 -259 2 -279 -12z m124 -21 c10 -16 -11 -31 -49 -34 -38 -3 -40 -5 -47 -45 -4 -23 -11 -108 -17 -189 -10 -141 -22 -189 -37 -150 -10 26 2 303 16 369 l13 57 58 0 c32 0 60 -4 63 -8z m241 -12 c147 -30 264 -77 351 -141 87 -64 154 -164 154 -229 l0 -30 -123 0 c-67 0 -137 -4 -156 -10 -31 -9 -66 -1 -81 20 -12 15 -79 48 -122 60 -48 13 -103 10 -207 -9 -30 -6 -58 -8 -63 -5 -17 11 15 325 36 352 12 16 113 12 211 -8z m587 -57 c18 -9 40 -20 48 -24 8 -5 34 -18 57 -30 51 -27 115 -87 146 -137 31 -50 60 -129 52 -142 -7 -11 -118 -14 -128 -3 -4 3 7 14 23 24 50 31 37 83 -39 156 -63 62 -70 67 -133 103 -52 29 -70 38 -95 46 -7 2 -13 8 -13 14 0 15 44 12 82 -7z m-1207 -39 c14 -6 16 -80 15 -820 -1 -757 -3 -815 -19 -835 -16 -20 -29 -22 -227 -29 -115 -4 -283 -13 -374 -19 -657 -43 -911 -52 -930 -35 -23 22 0 35 81 44 105 13 314 33 379 36 30 2 120 10 200 19 80 8 195 19 255 25 61 6 166 16 235 21 69 5 161 15 205 22 l80 12 3 200 c1 110 6 459 10 775 l7 575 30 6 c17 4 31 7 32 8 1 0 9 -2 18 -5z m-217 -798 c-3 -573 -4 -611 -20 -614 -17 -3 -18 31 -18 616 0 340 3 622 7 625 3 4 12 2 20 -4 11 -10 13 -120 11 -623z m-154 538 c8 -20 8 -1148 0 -1168 -3 -9 -12 -16 -20 -16 -12 0 -14 93 -14 593 0 327 3 597 7 600 11 11 20 8 27 -9z m882 -22 c5 -4 18 -18 27 -32 14 -20 17 -51 17 -187 0 -159 0 -162 -22 -169 l-23 -7 23 -10 22 -10 -2 -536 -3 -536 -129 -3 c-73 -1 -134 2 -139 7 -5 5 -7 21 -3 35 6 23 12 26 50 26 77 0 73 -20 77 468 4 375 2 434 -11 442 -16 10 -57 3 -78 -13 -18 -14 -35 5 -30 34 2 20 10 25 43 28 l40 5 -40 5 -40 6 2 183 c3 170 2 183 -15 180 -27 -5 -43 -86 -51 -246 -7 -160 -24 -196 -29 -62 -4 101 15 274 35 313 14 28 46 36 59 16 4 -8 11 -4 18 10 19 34 75 58 136 60 30 0 60 -3 66 -7z m-1036 -64 c0 -7 0 -258 0 -558 0 -513 -5 -606 -27 -539 -4 13 -7 268 -5 567 2 471 4 542 17 542 8 0 15 -6 15 -12z m-150 -599 c0 -500 -1 -530 -17 -527 -17 3 -18 31 -19 413 -1 509 4 645 23 645 11 0 13 -93 13 -531z m-152 -46 c-3 -435 -5 -498 -18 -498 -13 0 -15 60 -17 470 -1 259 1 482 4 498 3 15 12 27 19 27 12 0 14 -78 12 -497z m2561 400 c7 -27 16 -76 21 -110 5 -35 14 -72 20 -82 5 -11 10 -40 10 -64 0 -24 7 -66 15 -93 19 -61 19 -84 1 -84 -18 0 -46 87 -46 145 0 25 -7 62 -15 82 -8 19 -15 55 -15 80 0 24 -7 60 -15 80 -8 19 -15 48 -15 64 0 46 25 34 39 -18z m-2709 -435 c0 -249 -4 -459 -9 -467 -5 -8 -15 -11 -23 -8 -12 4 -14 71 -11 443 2 242 6 449 9 462 2 12 11 22 19 22 13 0 15 -59 15 -452z m-151 155 c-1 -115 -4 -307 -8 -428 -6 -204 -7 -220 -25 -223 -18 -4 -18 9 -11 420 4 232 9 426 12 431 2 4 11 7 19 7 12 0 14 -33 13 -207z m1921 119 c3 -12 3 -105 0 -205 l-5 -182 -57 -3 c-46 -2 -58 0 -58 12 0 10 13 16 43 18 l42 3 0 175 0 175 -42 3 c-30 2 -43 8 -43 18 0 12 12 14 57 12 50 -3 58 -6 63 -26z m-2076 -7 c3 -9 1 -156 -4 -328 -5 -172 -10 -339 -10 -372 0 -66 -12 -97 -30 -79 -8 8 -8 111 0 385 6 206 13 382 16 392 7 21 20 22 28 2z m1516 -25 c12 -7 12 -12 2 -22 -9 -9 -12 -111 -12 -432 0 -419 -5 -529 -22 -524 -9 3 -12 964 -2 979 7 11 15 11 34 -1z m-1675 -292 c-3 -139 -8 -302 -10 -363 -3 -60 -5 -113 -5 -117 0 -5 -7 -8 -17 -8 -15 0 -15 29 -9 352 4 194 12 360 17 370 27 50 31 13 24 -234z m1790 37 c0 -123 -1 -130 -20 -130 -19 0 -20 8 -23 119 -3 133 0 149 25 144 16 -3 18 -17 18 -133z m525 -83 c14 -20 27 -39 30 -42 10 -10 30 -50 30 -60 0 -6 -7 -6 -19 2 -15 9 -23 9 -35 -1 -23 -19 -20 -30 9 -37 35 -9 31 -32 -7 -42 l-33 -9 48 -8 c67 -10 64 -24 -7 -40 -41 -9 -15 -25 41 -25 44 0 64 -13 37 -24 -9 -3 -28 -6 -42 -6 -15 0 -38 -3 -51 -7 -23 -6 -23 -7 -5 -14 10 -4 35 -8 54 -8 19 -1 42 -5 49 -10 16 -10 8 -13 -73 -26 -47 -8 -31 -25 24 -25 19 0 42 -4 49 -9 16 -10 8 -13 -73 -26 -47 -8 -31 -25 24 -25 19 0 42 -4 49 -9 16 -10 10 -12 -74 -27 -33 -5 -37 -8 -20 -14 11 -5 34 -9 50 -9 17 -1 36 -5 44 -10 16 -10 3 -15 -69 -27 -36 -5 -41 -8 -25 -15 11 -4 35 -8 53 -8 47 -1 36 -24 -17 -35 l-43 -9 33 -11 c56 -18 34 -31 -53 -31 l-82 0 -17 90 c-19 95 -24 264 -12 413 5 76 8 85 30 93 12 4 23 13 23 19 0 19 20 10 32 -15 10 -23 44 -43 54 -32 3 3 -8 24 -25 48 -17 23 -31 48 -31 56 0 25 25 13 50 -25z m109 -31 c9 -6 10 -10 2 -16 -16 -9 -44 2 -36 15 8 12 16 12 34 1z m2151 -61 c0 -42 -16 -56 -22 -17 -3 20 -11 23 -85 31 -46 5 -83 13 -83 18 0 4 43 8 95 8 l95 0 0 -40z m-1620 -103 c0 -5 27 -44 60 -87 59 -77 70 -100 50 -100 -13 0 -50 37 -50 50 0 6 -4 10 -9 10 -5 0 -21 20 -35 45 -15 25 -31 45 -36 45 -6 0 -10 5 -10 12 0 6 -7 19 -16 29 -24 27 -8 43 21 22 14 -10 25 -22 25 -26z m105 3 c5 -4 21 -10 34 -12 37 -5 39 -28 3 -28 -44 0 -118 35 -124 57 -5 19 -3 19 36 6 22 -8 45 -18 51 -23z m1373 -11 c-25 -42 -169 -179 -189 -179 -10 0 -19 4 -19 9 0 5 34 39 76 77 42 38 81 74 88 80 10 9 47 33 54 34 1 0 -3 -10 -10 -21z m-1253 -39 c17 -7 14 -9 -13 -9 -20 -1 -31 3 -27 9 7 12 13 12 40 0z m-73 -50 c26 0 48 -11 42 -21 -9 -16 -58 -9 -82 11 -13 11 -20 24 -17 30 5 8 12 6 24 -4 10 -9 25 -16 33 -16z m380 14 c33 -5 39 -11 49 -43 10 -35 31 -568 22 -583 -2 -5 -11 -8 -19 -8 -12 0 -14 27 -14 154 0 84 -5 213 -11 287 -12 149 -17 159 -80 159 -40 0 -54 11 -45 36 4 11 14 14 33 10 16 -3 45 -8 65 -12z m649 6 c18 -10 19 -24 19 -315 0 -264 -2 -305 -15 -305 -13 0 -15 38 -15 281 0 166 -4 288 -10 299 -8 16 -14 17 -40 7 -16 -6 -32 -9 -35 -5 -12 12 8 37 33 41 15 2 31 5 35 6 5 0 17 -4 28 -9z m-365 -345 c12 -318 9 -354 -20 -325 -6 6 -12 137 -14 302 -3 176 -8 298 -14 306 -7 7 -35 12 -74 12 -49 0 -64 3 -64 14 0 20 10 22 97 16 l78 -5 11 -320z m207 312 c3 -7 5 -121 6 -253 1 -131 4 -265 7 -296 6 -54 5 -58 -15 -58 -19 0 -21 6 -22 58 -1 31 -4 163 -8 292 l-6 235 -67 3 c-63 3 -78 9 -61 25 3 4 41 7 84 7 54 0 78 -4 82 -13z m-808 -88 c10 -15 -1 -23 -20 -15 -9 3 -13 10 -10 16 8 13 22 13 30 -1z m-1387 -88 c3 -50 2 -52 -20 -49 -19 2 -24 10 -26 41 -3 39 12 71 32 64 6 -2 12 -27 14 -56z m1057 44 c75 -8 191 -64 249 -120 43 -42 98 -109 109 -135 4 -8 18 -35 32 -59 14 -24 25 -48 25 -54 0 -5 7 -24 16 -42 8 -18 14 -50 12 -71 l-3 -38 -210 3 c-278 5 -366 12 -375 31 -4 8 -15 42 -25 75 -41 141 -100 225 -158 225 -35 0 -94 -59 -99 -98 -2 -14 -9 -27 -15 -30 -18 -5 -16 58 2 82 8 11 15 26 15 34 0 28 117 162 142 162 5 0 22 6 36 14 30 16 136 35 167 30 11 -1 47 -5 80 -9z m315 -115 c0 -5 -6 -10 -14 -10 -8 0 -18 5 -21 10 -3 6 3 10 14 10 12 0 21 -4 21 -10z m1142 -27 c21 -20 38 -43 38 -50 0 -6 8 -16 17 -22 15 -8 16 -12 3 -35 -7 -14 -19 -26 -27 -26 -15 0 -53 -35 -53 -50 0 -5 7 -10 15 -10 8 0 15 7 15 15 0 8 7 15 15 15 9 0 18 7 21 15 7 16 54 21 54 6 0 -5 -20 -22 -44 -38 -39 -25 -45 -33 -51 -78 -8 -53 -13 -48 -29 28 -9 39 -30 29 -37 -19 -3 -21 -7 34 -8 124 -1 185 3 192 71 125z m-2032 -197 c0 -31 16 -35 25 -5 6 17 14 20 48 17 l42 -3 3 -45 c4 -56 -6 -112 -19 -105 -5 4 -9 28 -9 55 0 49 -13 73 -24 44 -10 -27 -6 -86 9 -144 21 -78 21 -310 0 -310 -11 0 -15 13 -16 53 -1 28 -2 57 -4 62 -1 6 -3 24 -5 40 -2 23 -5 18 -9 -20 -6 -48 -7 -50 -36 -50 l-30 0 -2 115 c0 63 -2 121 -2 128 -1 9 -32 12 -121 12 -142 0 -146 -3 -136 -104 14 -132 19 -120 -49 -126 -39 -3 -55 -8 -47 -14 14 -8 213 -24 232 -18 5 2 0 16 -12 32 -25 34 -18 63 14 58 20 -3 23 -9 23 -53 l0 -50 80 -10 c60 -7 81 -14 83 -26 5 -28 -20 -39 -67 -28 -24 5 -89 14 -145 19 -207 18 -455 50 -479 62 -14 7 -15 13 -7 28 8 14 8 31 0 58 -6 20 -10 78 -8 127 l3 90 313 5 313 5 20 33 c20 30 15 44 -7 22 -11 -11 -617 -15 -634 -5 -9 6 -5 42 6 54 8 9 146 16 392 20 l262 3 0 -26z m-1257 -3 c4 -3 2 -12 -4 -20 -7 -8 -12 -63 -13 -141 l-1 -127 -100 2 c-55 1 -118 6 -140 11 l-40 8 0 119 c0 66 3 128 7 138 7 15 23 17 146 17 76 0 142 -3 145 -7z m-485 -15 c8 -8 12 -49 12 -119 0 -121 -7 -134 -63 -124 -28 5 -36 13 -40 34 -6 27 1 185 8 209 6 15 67 16 83 0z m84 -110 c2 -62 -1 -119 -6 -126 -5 -7 -19 -12 -30 -10 -20 3 -21 10 -24 112 -1 61 0 116 2 123 3 7 16 13 30 13 25 0 25 0 28 -112z m3818 -8 c0 -17 -55 -37 -117 -43 -64 -5 -83 3 -83 35 0 15 4 16 26 8 36 -14 105 -12 134 4 25 14 40 13 40 -4z m-3277 -73 c-8 -46 -7 -82 2 -139 12 -76 23 -100 58 -126 14 -11 15 -17 6 -28 -61 -74 -146 141 -105 266 9 27 16 60 16 73 0 29 10 41 24 27 7 -7 7 -30 -1 -73z m2359 17 c15 -8 58 -14 95 -14 37 0 90 -7 117 -15 27 -8 66 -15 88 -15 21 0 38 -4 38 -10 0 -16 -72 -24 -115 -11 -22 7 -80 16 -129 21 -48 4 -93 13 -99 19 -6 6 -41 11 -78 11 -75 0 -99 6 -99 25 0 18 143 8 182 -11z m676 9 c-3 -14 -17 -19 -68 -25 -36 -3 -78 -11 -93 -17 -34 -13 -157 -15 -157 -2 0 14 27 21 76 21 25 0 55 5 67 12 12 7 47 15 77 19 97 11 102 11 98 -8z m-1739 -142 c2 -178 68 -319 121 -256 34 41 42 -18 9 -71 -40 -65 -111 -31 -139 66 -15 50 -25 296 -14 350 10 56 22 10 23 -89z m586 98 c138 -6 253 -14 258 -18 4 -4 10 -39 13 -77 4 -50 3 -65 -5 -54 -6 8 -11 22 -11 30 0 8 -11 27 -23 41 l-22 27 -235 3 -235 4 -6 -65 c-4 -58 -36 -157 -38 -120 -1 8 -6 64 -11 124 -12 119 -8 130 40 121 14 -2 138 -9 275 -16z m1407 4 c34 -31 19 -153 -20 -153 -4 0 -12 -10 -17 -22 -11 -24 -86 -54 -111 -44 -14 5 -14 8 0 28 9 12 16 39 16 58 0 43 15 60 52 60 23 0 32 -7 42 -30 15 -38 26 -29 26 22 l0 38 -42 0 c-24 0 -63 -5 -87 -11 -34 -8 -46 -7 -52 3 -15 24 -3 33 67 49 91 22 104 22 126 2z m-3071 -106 c10 -129 49 -209 91 -186 25 14 24 -13 -2 -36 -18 -17 -20 -17 -51 1 -41 25 -69 109 -69 211 0 130 22 137 31 10z m2052 74 c34 -6 109 -18 167 -27 130 -22 283 -22 373 0 38 9 83 16 100 16 18 0 57 6 87 14 39 10 59 11 67 4 16 -13 16 -55 2 -113 -10 -40 -15 -45 -46 -51 -39 -7 -55 6 -51 41 2 15 11 20 33 20 25 1 30 5 30 25 0 28 -6 29 -100 12 -33 -6 -99 -18 -146 -26 -109 -20 -218 -20 -323 -1 -162 29 -261 45 -283 45 -16 0 -23 6 -23 18 0 23 21 44 38 37 7 -2 41 -9 75 -14z m-3192 -47 c7 -8 20 -13 30 -11 13 4 16 0 12 -12 -11 -29 -24 -40 -41 -34 -22 9 -32 23 -32 51 0 26 12 28 31 6z m318 -3 c17 -11 -8 -19 -74 -23 -31 -2 -40 1 -43 15 -3 14 4 17 50 17 29 0 60 -4 67 -9z m406 -39 l120 -18 11 -34 c7 -19 13 -53 15 -75 4 -38 3 -40 -24 -38 -15 1 -44 14 -65 30 -47 35 -65 46 -127 78 -27 14 -57 30 -65 35 -8 5 -23 11 -33 14 -26 8 -11 26 21 26 15 -1 81 -9 147 -18z m2193 1 c17 -16 52 -104 52 -132 0 -13 -178 -15 -196 -3 -17 11 -44 68 -44 92 0 50 16 60 94 60 56 0 79 -4 94 -17z m300 -44 c3 -29 -18 -44 -49 -34 -13 4 -19 16 -19 36 0 28 2 30 33 27 26 -2 33 -8 35 -29z m546 -55 c24 -9 20 -51 -6 -66 -15 -7 -87 -13 -199 -16 -155 -4 -177 -2 -192 13 -20 19 -23 61 -4 68 18 8 382 8 401 1z m-2322 -31 c3 -25 9 -30 68 -45 36 -9 89 -17 118 -17 29 -1 69 -8 89 -16 19 -8 47 -15 62 -15 14 0 33 -4 40 -9 28 -18 -40 -25 -99 -11 -30 7 -104 16 -165 20 -60 4 -118 11 -127 15 -22 9 -31 38 -23 75 8 38 33 39 37 3z m691 -100 c2 -21 1 -42 -4 -47 -15 -16 -39 15 -39 50 0 27 4 34 19 34 14 0 20 -9 24 -37z m1424 -149 c2 -7 -17 -22 -42 -34 -35 -17 -55 -20 -83 -15 -20 4 -97 9 -170 12 -100 3 -148 1 -195 -11 -50 -13 -79 -14 -147 -6 -47 5 -111 10 -144 10 -70 0 -136 18 -136 36 0 11 63 14 328 17 520 4 585 3 589 -9z m-3622 -140 c21 -10 53 -39 70 -62 l30 -44 0 -381 0 -382 -23 -37 c-47 -76 -66 -83 -254 -86 -155 -3 -171 -2 -210 18 -57 28 -83 70 -97 151 -15 88 -14 593 1 678 24 141 81 172 308 167 109 -2 142 -6 175 -22z m710 7 c78 -27 103 -71 113 -194 9 -119 10 -119 -116 -115 l-87 3 -3 45 c-1 25 -5 55 -7 68 -7 28 -49 45 -92 37 -59 -11 -63 -30 -63 -334 0 -330 3 -341 87 -341 62 0 73 16 73 110 0 67 -3 81 -19 89 -10 6 -21 8 -24 5 -12 -13 -24 35 -23 96 l2 65 139 0 140 0 3 -135 c4 -164 -11 -283 -41 -327 -12 -17 -41 -41 -64 -53 -40 -20 -56 -21 -207 -18 l-164 3 -38 30 c-75 61 -74 54 -74 473 0 325 2 377 16 405 21 41 42 60 85 80 47 22 67 24 199 25 87 1 127 -3 165 -17z m1100 -5 c66 -28 85 -66 88 -177 l2 -94 -92 -3 -93 -3 0 36 c0 91 -69 131 -132 77 -23 -19 -24 -111 -3 -152 14 -27 105 -80 138 -80 24 0 120 -40 143 -59 46 -37 58 -78 62 -218 6 -193 -19 -260 -115 -304 -35 -16 -65 -19 -175 -19 -154 0 -197 14 -244 76 -28 36 -29 42 -29 143 l0 106 98 3 c53 1 97 -1 98 -5 0 -4 2 -34 3 -67 3 -68 19 -86 75 -86 62 0 81 29 81 117 0 100 -37 138 -161 164 -80 17 -136 46 -166 86 -28 36 -28 37 -28 193 0 209 14 239 135 284 8 3 74 4 145 2 95 -2 141 -7 170 -20z m1671 1 c44 -24 60 -45 79 -102 11 -34 15 -77 13 -130 l-3 -80 -97 -3 c-74 -2 -98 0 -99 10 0 7 -2 38 -3 68 -1 31 -5 61 -9 67 -13 21 -66 26 -92 9 l-25 -16 0 -310 0 -310 25 -16 c17 -11 35 -14 60 -10 l35 7 1 62 c2 74 6 117 13 125 8 8 171 6 185 -2 14 -9 15 -187 0 -240 -6 -21 -28 -57 -49 -80 l-39 -41 -174 0 -175 0 -39 31 c-67 54 -71 79 -72 470 -1 283 2 349 14 385 37 104 99 130 295 125 92 -2 133 -7 156 -19z m711 -5 c24 -12 49 -33 58 -45 17 -26 39 -207 26 -220 -4 -4 -48 -7 -97 -5 l-89 3 -3 45 c-5 69 -44 99 -101 79 -33 -12 -38 -20 -46 -86 -6 -40 -3 -54 17 -83 25 -37 97 -78 137 -79 47 -2 148 -60 172 -99 21 -33 24 -52 27 -186 5 -203 -13 -252 -111 -296 -62 -28 -289 -29 -350 -1 -78 36 -102 85 -102 216 l0 90 100 0 100 0 3 -65 c3 -76 15 -90 78 -90 59 0 74 23 74 115 0 111 -33 144 -170 170 -38 7 -105 37 -131 57 -9 7 -24 29 -35 48 -16 30 -19 56 -19 182 0 104 4 151 13 160 6 6 12 19 12 28 0 24 39 56 90 74 34 12 76 15 175 13 112 -2 136 -6 172 -25z m-5012 8 c3 -6 6 -187 6 -403 0 -215 3 -397 7 -404 5 -8 43 -13 107 -15 l100 -3 3 -82 3 -83 -220 0 -221 0 -2 478 c-2 262 -2 487 0 500 3 21 7 22 107 22 59 0 107 -4 110 -10z m2020 -12 c3 -13 4 -237 3 -498 l-3 -475 -107 -3 c-60 -1 -109 1 -109 5 -6 42 -3 962 3 976 7 14 23 17 108 17 95 0 100 -1 105 -22z m1324 8 c7 -9 11 -41 9 -83 l-3 -68 -65 -3 c-35 -2 -70 -8 -77 -14 -10 -8 -13 -97 -13 -414 l0 -404 -104 0 c-85 0 -105 3 -110 16 -3 9 -6 193 -6 410 l0 394 -22 5 c-13 3 -48 6 -78 7 l-55 3 -3 74 c-2 53 1 77 10 82 7 5 124 9 259 9 200 0 249 -3 258 -14z m331 -36 c3 -25 4 -249 2 -497 l-3 -453 -104 0 -105 0 -2 308 c-2 375 1 673 8 684 3 5 49 7 102 6 l97 -3 5 -45z m873 -508 c21 -23 13 -32 -30 -32 -29 0 -33 3 -33 25 0 20 5 25 23 25 13 0 31 -8 40 -18z m-2440 -602 c22 -18 26 -18 37 -4 10 11 29 14 78 12 70 -3 93 -21 48 -38 -25 -9 -25 -11 -28 -122 -3 -108 -4 -113 -25 -116 -22 -3 -22 -1 -25 115 -3 107 -5 118 -22 121 -10 2 -23 -3 -28 -12 -11 -20 -42 -21 -58 -1 -7 8 -16 12 -21 9 -15 -9 -10 -41 8 -55 30 -25 73 -92 73 -113 -1 -32 -31 -65 -66 -72 -24 -5 -37 -1 -58 19 -32 30 -31 61 2 65 17 3 25 -2 29 -17 3 -12 12 -21 19 -21 22 0 17 48 -7 68 -29 24 -69 88 -69 111 0 20 53 71 74 71 8 0 25 -9 39 -20z m425 -5 c31 -26 52 -32 52 -15 0 18 49 42 74 36 49 -12 56 -29 56 -142 0 -116 -7 -139 -45 -148 -62 -16 -95 18 -95 99 0 67 -20 101 -34 58 -4 -10 -20 -33 -36 -52 -36 -41 -38 -61 -6 -61 34 0 56 -10 56 -25 0 -18 -36 -24 -90 -17 -64 10 -66 39 -5 121 32 44 45 70 43 89 -4 37 -24 38 -36 2 -12 -32 -39 -40 -49 -14 -9 25 10 67 37 81 35 18 44 16 78 -12z m307 13 c48 -22 46 -103 -4 -167 -38 -47 -40 -71 -7 -71 13 0 29 -6 35 -14 18 -21 -8 -35 -59 -31 -25 2 -48 4 -52 4 -5 1 -8 17 -8 36 0 26 11 50 39 88 44 59 54 86 42 106 -11 17 -30 6 -41 -25 -16 -40 -40 -30 -40 16 0 33 5 42 28 54 33 19 35 19 67 4z m164 -3 c45 -23 53 -65 24 -118 -10 -18 -23 -36 -29 -42 -7 -5 -19 -22 -29 -37 -14 -22 -14 -29 -4 -32 56 -15 74 -23 71 -31 -7 -27 -129 -25 -139 2 -8 20 15 69 54 115 20 25 33 51 33 68 0 41 -19 47 -31 11 -12 -34 -29 -39 -53 -15 -15 14 -15 18 1 44 15 26 44 47 66 49 4 1 21 -6 36 -14z m-1020 -8 c15 -19 4 -27 -36 -27 -37 0 -49 -16 -39 -55 5 -18 13 -25 31 -25 18 0 25 -5 25 -20 0 -15 -7 -20 -25 -20 -29 0 -40 -19 -31 -54 4 -18 15 -25 46 -30 22 -3 40 -11 40 -16 0 -18 -48 -29 -92 -22 l-43 8 -3 123 c-2 82 1 128 9 137 15 18 103 19 118 1z m-757 -40 c35 -24 70 -46 78 -50 8 -4 24 -13 35 -19 78 -51 106 -66 240 -138 172 -92 368 -185 505 -240 30 -12 69 -28 85 -35 17 -7 50 -21 75 -30 25 -10 57 -23 72 -31 14 -8 34 -14 45 -14 10 0 27 -7 37 -15 25 -19 63 -19 100 0 15 8 33 15 38 15 6 0 24 6 41 14 18 7 52 21 77 31 66 25 127 50 215 89 22 10 54 24 70 31 68 30 424 208 480 240 33 20 69 40 80 45 11 6 32 18 47 28 14 9 48 30 75 46 26 16 50 32 53 35 10 12 60 34 65 29 7 -7 -68 -83 -159 -163 -38 -33 -76 -67 -85 -76 -24 -24 -298 -229 -306 -229 -4 0 -24 -12 -44 -27 -20 -16 -45 -33 -56 -40 -289 -175 -311 -187 -485 -273 -58 -28 -113 -56 -122 -61 -10 -5 -25 -9 -34 -9 -16 0 -260 119 -349 170 -22 13 -58 33 -80 45 -22 11 -58 33 -80 47 -22 13 -44 27 -50 29 -25 10 -201 131 -310 212 -206 154 -425 348 -425 375 0 17 3 16 72 -31z m1098 -207 c0 -13 -7 -20 -18 -20 -26 0 -34 11 -21 27 17 20 39 16 39 -7z"/> <path d="M5544 4565 c-13 -33 17 -138 49 -173 28 -30 120 -47 262 -47 120 0 130 1 133 19 2 11 -2 24 -10 30 -9 6 -18 21 -22 33 -12 37 -73 93 -101 93 -38 0 -32 -28 7 -32 17 -2 33 -9 36 -15 5 -17 -60 -17 -76 -1 -7 7 -40 16 -74 20 -92 11 -179 32 -181 43 -1 6 16 11 38 13 58 4 75 12 50 22 -35 15 -105 12 -111 -5z"/> <path d="M5706 4541 c-8 -12 19 -21 65 -21 40 0 52 13 23 24 -24 9 -82 7 -88 -3z"/> <path d="M4605 4300 c-20 -39 -19 -63 4 -84 22 -20 32 -11 36 32 1 15 5 39 10 55 6 23 4 27 -14 27 -13 0 -26 -11 -36 -30z"/> <path d="M4370 4121 c0 -12 62 -21 143 -21 73 0 90 14 30 24 -56 9 -173 7 -173 -3z"/> <path d="M3558 4454 c-3 -3 -4 -14 -1 -25 8 -28 33 -24 33 6 0 23 -18 34 -32 19z"/> <path d="M7075 4148 c-9 -23 2 -51 17 -46 18 6 20 22 4 43 -14 19 -15 19 -21 3z"/> <path d="M5754 4095 c-8 -33 1 -55 24 -55 28 0 45 25 38 55 -9 35 -53 35 -62 0z"/> <path d="M2655 3455 l-25 -24 0 -293 c0 -335 1 -338 70 -338 69 0 74 20 78 255 3 271 -4 381 -29 406 -26 26 -65 24 -94 -6z"/> <path d="M4705 2437 c-3 -7 -5 -52 -3 -98 2 -67 6 -84 18 -84 12 0 15 17 15 94 0 67 -4 96 -12 98 -7 3 -15 -2 -18 -10z"/> <path d="M3975 6431 c-6 -11 9 -23 19 -14 9 9 7 23 -3 23 -6 0 -12 -4 -16 -9z"/> <path d="M3921 6401 c-9 -6 -10 -11 -2 -15 13 -8 31 1 31 15 0 11 -11 11 -29 0z"/> <path d="M5890 6395 c0 -9 9 -15 24 -15 13 0 29 -7 36 -15 7 -8 16 -15 21 -15 12 0 79 -69 79 -81 0 -5 7 -12 15 -15 8 -4 15 -12 15 -19 0 -8 6 -20 13 -27 8 -7 17 -26 21 -41 3 -15 11 -27 16 -27 15 0 12 37 -5 54 -8 8 -15 21 -15 29 0 8 -7 20 -15 27 -8 7 -15 16 -15 21 0 12 -101 109 -113 109 -5 0 -15 7 -23 15 -9 8 -24 15 -35 15 -10 0 -19 -7 -19 -15z"/> <path d="M3865 6369 c-4 -6 -5 -13 -2 -16 7 -7 27 6 27 18 0 12 -17 12 -25 -2z"/> <path d="M3762 6313 c-6 -2 -10 -9 -7 -13 7 -11 35 -2 35 11 0 10 -8 10 -28 2z"/> <path d="M3712 6283 c-6 -2 -10 -9 -7 -13 7 -11 35 -2 35 11 0 10 -8 10 -28 2z"/> <path d="M3655 6249 c-4 -6 -5 -13 -2 -16 7 -7 27 6 27 18 0 12 -17 12 -25 -2z"/> <path d="M3601 6221 c-7 -5 -9 -11 -4 -14 5 -3 15 -2 22 2 7 5 9 11 4 14 -5 3 -15 2 -22 -2z"/> <path d="M3550 6190 c-20 -12 -10 -19 14 -10 11 3 15 9 10 13 -6 3 -16 2 -24 -3z"/> <path d="M3495 6160 c-3 -5 3 -10 15 -10 12 0 18 5 15 10 -3 6 -10 10 -15 10 -5 0 -12 -4 -15 -10z"/> <path d="M3445 6129 c-4 -6 -5 -13 -2 -16 7 -7 27 6 27 18 0 12 -17 12 -25 -2z"/> <path d="M3387 6104 c-11 -11 3 -24 18 -18 8 4 12 10 9 15 -6 11 -18 12 -27 3z"/> <path d="M3280 6040 c-12 -8 -11 -10 8 -10 12 0 22 5 22 10 0 13 -11 13 -30 0z"/> <path d="M3230 6010 c-12 -8 -11 -10 8 -10 12 0 22 5 22 10 0 13 -11 13 -30 0z"/> <path d="M3175 5981 c-6 -11 9 -23 19 -14 9 9 7 23 -3 23 -6 0 -12 -4 -16 -9z"/> <path d="M5164 5968 c-16 -12 -31 -23 -33 -24 -2 -2 -1 -10 3 -19 5 -14 10 -12 29 11 l23 26 492 0 c271 0 492 4 492 8 0 15 -135 20 -550 20 -424 0 -428 0 -456 -22z"/> <path d="M3121 5951 c-7 -5 -9 -11 -4 -14 5 -3 15 -2 22 2 7 5 9 11 4 14 -5 3 -15 2 -22 -2z"/> <path d="M2965 5861 c-6 -11 9 -23 19 -14 9 9 7 23 -3 23 -6 0 -12 -4 -16 -9z"/> <path d="M2907 5834 c-11 -11 3 -24 18 -18 8 4 12 10 9 15 -6 11 -18 12 -27 3z"/> <path d="M5152 5769 c2 -6 8 -10 13 -10 5 0 11 4 13 10 2 6 -4 11 -13 11 -9 0 -15 -5 -13 -11z"/> <path d="M2751 5741 c-10 -7 -10 -10 -1 -16 6 -4 16 -3 22 3 13 13 -4 23 -21 13z"/> <path d="M2697 5714 c-8 -8 1 -24 14 -24 5 0 9 7 9 15 0 15 -12 20 -23 9z"/> <path d="M2637 5674 c-4 -4 -4 -10 -1 -15 6 -10 34 0 34 12 0 10 -24 12 -33 3z"/> <path d="M5555 5010 c28 -12 45 -12 45 0 0 6 -15 10 -32 9 -28 0 -30 -2 -13 -9z"/> <path d="M2078 4083 c12 -2 30 -2 40 0 9 3 -1 5 -23 4 -22 0 -30 -2 -17 -4z"/> </g> </svg> 